# xmcd
#
# Track frame offsets: 
#        150
#        20843
#        38056
#        53344
#        66394
#        79719
#        101406
#        110719
#        127774
#        141694
#        161939
#        183691
#        204455
#        219354
#        236759
#        250920
#        271727
#
# Disc length: 3786 seconds
#
# Revision: 2
# Processed by: cddbd v1.5.2PL0 Copyright (c) Steve Scherf et al.
# Submitted via: ExactAudioCopy v1.1
#
DISCID=f90ec811
DTITLE=Various Artist - Black and White Blues [CD 1)
DYEAR=1999
DGENRE=Blues
TTITLE0=Alvin Lee - Real Life Blues
TTITLE1=John Davis - Everyday I Have The Blues
TTITLE2=Abi Wallenstein - Blues Harp Boogie
TTITLE3=Peter Chatman - Jasper's Gal
TTITLE4=Leadbelly - Packin' Trunk
TTITLE5=Harvey Mandel - Long Grey Mare
TTITLE6=Lightnin Hopkins - Can't Do Like You Used To
TTITLE7=Canned Heat - Creole Queen
TTITLE8=Muddy Waters - I Be's Troubled
TTITLE9=Art Hodes - Mojo Blues
TTITLE10=Robert Gordon - Prove It
TTITLE11=Dave Peverett - If You Be My Baby
TTITLE12=''Hot Lips'' Page - The Blues Jumped The Rabbit
TTITLE13=Mick Jagger and Chris Jagger - Racketeer Blues
TTITLE14=T-Bone Walker - I Can't Stand Being Away From You
TTITLE15=Savoy Brown - Shake For Me
TTITLE16=Big Joe Turner - Rebecca
EXTD=Year: 1999   [CD 1 from 2)
EXTT0=
EXTT1=
EXTT2=
EXTT3=
EXTT4=
EXTT5=
EXTT6=
EXTT7=
EXTT8=
EXTT9=
EXTT10=
EXTT11=
EXTT12=
EXTT13=
EXTT14=
EXTT15=
EXTT16=
PLAYORDER=
